<?xml version="1.0" encoding="utf-8"?>
<!-- Updated with colored bars -->
<svg width="10px" height="10px" viewBox="0 0 24 24" role="img" xmlns="http://www.w3.org/2000/svg">
    <!-- Left bar in yellow -->
    <path d="M4.5 7.5A1.5 1.5 0 0 1 6 9v10.5A1.5 1.5 0 0 1 4.5 21h-3C.673 21 0 20.328 0 19.5V9c0-.828.673-1.5 1.5-1.5h3" fill="#FFD700"/>
    <!-- Middle bar in blue -->
    <path d="M13.5 3A1.5 1.5 0 0 1 15 4.5v15a1.5 1.5 0 0 1-1.5 1.5h-3c-.827 0-1.5-.672-1.5-1.5v-15c0-.828.673-1.5 1.5-1.5h3" fill="#1E90FF"/>
    <!-- Right bar in red -->
    <path d="M22.5 10.5A1.5 1.5 0 0 1 24 12v7.5a1.5 1.5 0 0 1-1.5 1.5h-3a1.5 1.5 0 0 1-1.5-1.5V12a1.5 1.5 0 0 1 1.5-1.5h3z" fill="#FF0000"/>
</svg>
